<svg width="210mm" height="210mm" version="1.1" viewBox="0 0 210 210" xmlns="http://www.w3.org/2000/svg">
 <path d="m91.279 53.857c-4.037 5.214-6.2437 11.613-6.2787 18.207h40c-0.035-6.5942-2.2416-12.993-6.2787-18.207h-14.721z" fill="#666" stroke-width=".265"/>
 <path d="m105 24.436-0.99994 1.0418c-12.683 13.357-12.721 26.379-12.721 26.379h27.442s-0.0378-13.022-12.721-26.379z" fill="#a00" stroke-width=".265"/>
 <path d="m85.014 74.064c-29.355 8.8219-49.454 35.848-49.456 66.5 0.0062 8.442 1.5516 16.812 4.5604 24.7 4.4783-16.978 8.9455-33.96 13.503-50.918 1.0479-2.721 4.0045-4.4553 6.8792-4.2736h89c2.8747-0.18167 5.8313 1.5526 6.8792 4.2736 4.5576 16.958 9.0248 33.94 13.503 50.918 3.0088-7.8876 4.5543-16.258 4.5605-24.7-2e-3 -30.652-20.101-57.678-49.456-66.5h-20.986z" fill="#a00" stroke-width=".26289"/>
 <path d="m59.999 112.06c-2.2776 1e-3 -4.2668 1.5412-4.8379 3.746l-0.0021-5.2e-4 -10.025 38.685-0.0088 0.0357-3.0086 11.267 4.8307 1.2898 3.0179-11.303 8.802-33.966 1.232-4.7547h90.001l1.232 4.7547 8.802 33.966 3.0179 11.303 4.8307-1.2898-3.0086-11.267-9e-3 -0.0357-10.025-38.685-2e-3 5.2e-4c-0.5712-2.2048-2.5604-3.745-4.838-3.746h-46.001z" fill="#666" stroke-width=".265"/>
 <path d="m63.992 122.06h82.013a45 45 0 0 1 3.9946 18.5 45 45 0 0 1-15.531 34.009 45 45 0 0 1-10.775 6.9246 45 45 0 0 1-18.693 4.0664 45 45 0 0 1-45-45 45 45 0 0 1 0.45062-6.3045 45 45 0 0 1 6e-3 -0.047 45 45 0 0 1 1.3291-6.1609 45 45 0 0 1 0.014-0.0507 45 45 0 0 1 2.1921-5.9345 45 45 0 0 1 1e-3 -3e-3z" fill="#ccc" stroke-width=".265"/>
</svg>
