<svg width="210mm" height="210mm" version="1.1" viewBox="0 0 210 210" xmlns="http://www.w3.org/2000/svg">
 <g stroke-width=".265">
  <path d="m105 95.564a45 45 0 0 0-29.974 11.497h60.009a45 45 0 0 0-30.035-11.497z" fill="#ccc"/>
  <path d="m63.992 122.06h82.013a45 45 0 0 1 3.9946 18.5 45 45 0 0 1-15.531 34.009 45 45 0 0 1-10.775 6.9246 45 45 0 0 1-18.693 4.0664 45 45 0 0 1-45-45 45 45 0 0 1 0.45062-6.3045 45 45 0 0 1 6e-3 -0.047 45 45 0 0 1 1.3291-6.1609 45 45 0 0 1 0.014-0.0507 45 45 0 0 1 2.1921-5.9345 45 45 0 0 1 1e-3 -3e-3z" fill="#ccc"/>
  <path d="m63.993 112.06v4.9997h82.013v-4.9997h-42.007z" fill="#fc0"/>
 </g>
</svg>
