<?xml version="1.0" encoding="UTF-8"?>
<!-- Created with Inkscape (http://www.inkscape.org/) -->
<svg width="210mm" height="297mm" version="1.1" viewBox="0 0 210 297" xmlns="http://www.w3.org/2000/svg">
 <rect width="210" height="297" fill="#fff" stroke-width=".32374"/>
 <path d="m106 61.793v18.207h-19a30 30 0 0 1 6.2787-18.207z" fill="#666" stroke-width=".265"/>
 <path d="m106 33.414v26.379h-12.721s0.0378-13.022 12.721-26.379z" fill="#a00" stroke-width=".265"/>
 <path d="m106 82v36.008h-43.5c-2.8747-0.18167-5.8313 1.5526-6.8792 4.2736-4.5576 16.958-9.0248 33.94-13.503 50.918-3.0088-7.8876-4.5543-16.258-4.5604-24.7 2e-3 -30.652 20.101-57.678 49.456-66.5z" fill="#a00" stroke-width=".26289"/>
 <g stroke-width=".265">
  <path d="m106 120v4.9997h-44l-1.232 4.7547-8.802 33.966-3.0179 11.303-1.9994-0.53382-2.8314-0.75603 3.0086-11.267 9e-3 -0.0357 10.025-38.685 2e-3 5.2e-4c0.5712-2.2048 2.5604-3.745 4.838-3.746z" fill="#666"/>
  <path d="m108 125v-4.9997h40.006v4.9997z" fill="#fc0"/>
  <path d="m108 118.01v-9.9999h4e-3v4.9997h5.0007v-4.9997h5.0002v4.9997h5.0002v-4.9997h5.0002v4.9997h5.0002v-4.9997h5.0002v4.9997h5.0002v-4.9997h5.0003v9.9999z" fill="#fc0"/>
  <path d="m108 91.596c12.119 0.32291 23.594 5.5218 31.829 14.419h-8.815v4.5687c0.18788 0.67916-0.58301 0.42295-0.96893 0.39585-0.10977-1.5568-0.015-3.3262-0.0465-4.9646-2.9948 1e-5 -5.9897 0-8.9845 0v4.5687c0.18788 0.67916-0.583 0.42295-0.96893 0.39585-0.10977-1.5568-0.0155-3.3262-0.047-4.9646-2.9948 0-5.9892 1e-5 -8.984 0-6e-3 1.5569-0.0152 3.1136-0.0222 4.6705 0.1032 0.62122-0.66031 0.25585-1.0113 0.28835-0.0149-1.3766 0.29464-2.9037-0.50798-4.131-0.41335-0.45915-0.92198-0.67528-1.4723-0.77877zm31.998 14.585c0.34387 0.32622 0.68256 0.65785 1.016 0.99477v3.4081c0.18788 0.67916-0.583 0.42295-0.96893 0.39585-0.10615-1.5054-0.0242-3.2064-0.047-4.7987z" fill="#666"/>
  <path d="m65.992 130h82.013a45 45 0 0 1 3.9946 18.5 45 45 0 0 1-15.531 34.009 45 45 0 0 1-10.775 6.9246 45 45 0 0 1-18.693 4.0664 45 45 0 0 1-45-45 45 45 0 0 1 0.45062-6.3045 45 45 0 0 1 6e-3 -0.047 45 45 0 0 1 1.3291-6.1609 45 45 0 0 1 0.014-0.0507 45 45 0 0 1 2.1921-5.9345 45 45 0 0 1 1e-3 -3e-3z" fill="#ccc"/>
  <path d="m108 89.568v-13.397l0.46767-1.7451-0.46767-0.12506v-5.1759l1.7616 0.4718 1.294-4.8297 4.8297 1.294-1.294 4.8297 4.8297 1.294-1.2945 4.8297-4.8292-1.294-3.729 13.916c-0.39331-0.02231-0.78592-0.05627-1.1798-0.06821-0.12948-0.0021-0.25908 3.29e-4 -0.3886-5.16e-4z" fill="#fc0"/>
 </g>
 <text transform="matrix(.43882 0 0 .43882 -94.628 -172.02)" fill="#666666" font-family="Bahnschrift" font-size="53.333px" letter-spacing="0px" stroke-width="1.0016" text-align="center" style="shape-inside:url(#rect53);white-space:pre" xml:space="preserve"><tspan x="298.75383" y="892.17696" font-family="'Sitka Display'"><tspan font-size="96px">K</tspan><tspan font-weight="bold">HANFUSED</tspan></tspan></text>
</svg>
