<svg width="210mm" height="210mm" version="1.1" viewBox="0 0 210 210" xmlns="http://www.w3.org/2000/svg">
 <g stroke-width=".265">
  <path d="m63.992 122.06h82.013a45 45 0 0 1 3.9946 18.5 45 45 0 0 1-15.531 34.009 45 45 0 0 1-10.775 6.9246 45 45 0 0 1-18.693 4.0664 45 45 0 0 1-45-45 45 45 0 0 1 0.45062-6.3045 45 45 0 0 1 6e-3 -0.047 45 45 0 0 1 1.3291-6.1609 45 45 0 0 1 0.014-0.0507 45 45 0 0 1 2.1921-5.9345 45 45 0 0 1 1e-3 -3e-3z" fill="#ccc"/>
  <path d="m63.993 112.06v4.9997h82.013v-4.9997h-42.007z" fill="#fc0"/>
  <path d="m63.993 100.07v9.9999h82.013v-9.9999h-5.0002v4.9997h-5.0002v-4.9997h-5.0002v4.9997h-5.0002v-4.9997h-5.0002v4.9997h-5.0002v-4.9997h-5.0002v4.9997h-5.0007v-4.9997h-2.0084v4.9997h-5.0012v-4.9997h-4.9997v4.9997h-5.0002v-4.9997h-5.0002v4.9997h-5.0002v-4.9997h-5.0007v4.9997h-5.0002v-4.9997z" fill="#fc0"/>
  <path d="m104 83.66c-12.119 0.32291-23.595 5.5219-31.829 14.419h8.815v4.5687c-0.18788 0.67916 0.58302 0.42295 0.96893 0.39585 0.10977-1.5568 0.015-3.3262 0.0465-4.9646 2.9948 1e-5 5.9897 0 8.9845 0v4.5687c-0.18788 0.67916 0.58301 0.42295 0.96893 0.39585 0.10977-1.5568 0.0155-3.3262 0.047-4.9646 2.9948 0 5.9892 1e-5 8.984 0 6e-3 1.5569 0.0152 3.1136 0.0222 4.6705-0.1032 0.62121 0.66031 0.25585 1.0113 0.28835 0.0149-1.3765-0.29463-2.9037 0.50798-4.131 0.41335-0.45915 0.92199-0.67528 1.4723-0.77877h2.0004c0.55028 0.10349 1.0589 0.31962 1.4723 0.77877 0.80262 1.2273 0.49308 2.7545 0.50798 4.131 0.351-0.0325 1.1145 0.33286 1.0113-0.28835 7e-3 -1.5569 0.0162-3.1136 0.0222-4.6705 2.9948 1e-5 5.9892 0 8.984 0 0.0315 1.6383-0.0628 3.4078 0.047 4.9646 0.38593 0.0271 1.1568 0.28331 0.96894-0.39585v-4.5687c2.9948 0 5.9897 1e-5 8.9845 0 0.0315 1.6383-0.0633 3.4078 0.0465 4.9646 0.38592 0.0271 1.1568 0.28331 0.96893-0.39585v-4.5687h8.815c-8.234-8.8974-19.71-14.096-31.829-14.419zm-31.998 14.585c-0.34387 0.32622-0.68257 0.65786-1.016 0.99477v3.4081c-0.18788 0.67916 0.583 0.42295 0.96893 0.39585 0.10615-1.5054 0.02423-3.2064 0.04703-4.7987zm65.995 0c0.0228 1.5923-0.0591 3.2933 0.047 4.7987 0.38592 0.0271 1.1568 0.28331 0.96893-0.39585v-3.4081c-0.33339-0.33692-0.67209-0.66855-1.016-0.99477z" fill="#666"/>
  <path d="m109.06 56.831-1.294 4.8292-4.8292-1.294-1.2945 4.8302 4.362 1.1684 0.46767 0.12506-0.46767 1.7451v5.17e-4l-3.4148 12.743 2.4076 0.64492 7e-3 -5.17e-4c0.75244 7.63e-4 1.5047 0.02041 2.2562 0.05891 0.0818 0.0046 0.16366 0.0094 0.24547 0.01447 0.0222 0.0013 0.0444 0.0024 0.0667 0.0036l3.729-13.916 4.8292 1.294 1.2945-4.8297-4.8297-1.294 1.294-4.8297z" fill="#fc0"/>
 </g>
</svg>
